<?xml version="1.0" encoding="utf-8"?>
<!DOCTYPE svg PUBLIC "-//W3C//DTD SVG 1.1//EN" "http://www.w3.org/Graphics/SVG/1.1/DTD/svg11.dtd">
<svg version="1.1" id="Layer_1" xmlns="http://www.w3.org/2000/svg" xmlns:xlink="http://www.w3.org/1999/xlink" x="0px" y="0px"
	 viewBox="-395.2845 6 1650.8429 674.4858" enable-background="new -395.2845 6 1650.8429 674.4858" xml:space="preserve">
<g>
	
		<radialGradient id="SVGID_1_" cx="-376.1025" cy="-15771.252" r="203.2801" gradientTransform="matrix(3.6875 0 0 -0.1003 1817.015 -972.6003)" gradientUnits="userSpaceOnUse">
		<stop  offset="0" style="stop-color:#C3B5A9"/>
		<stop  offset="0.3034" style="stop-color:#D3C8BF"/>
		<stop  offset="0.9344" style="stop-color:#FBFAF9"/>
		<stop  offset="1" style="stop-color:#FFFFFF"/>
	</radialGradient>
	<path fill="url(#SVGID_1_)" d="M1180.137,609.301c0,11.2769-335.8058,20.3801-750,20.3801c-414.1813,0-750-9.1096-750-20.3801
		c0-11.2704,335.8058-20.3801,750-20.3801c414.1877,0,750,9.1416,750,20.3929V609.301z"/>
	<path fill="#FFFFFF" stroke="#EC1C24" stroke-width="0.1855" d="M-85.6318,317.6628
		c-40.121,15.4897-68.7478,83.7709-81.8914,101.8432c-4.4558,6.1243-11.2705,15.3875-18.897,25.9547l-17.4778-4.3726
		c0,0,6.3352-3.2859,6.8083-6.105c0.4603-2.8128-1.4064-6.3352,0.4603-10.318c1.8795-3.9955,15.9564-29.5666,21.5948-47.6389
		c5.6257-18.0659,16.8897-53.7312,36.8351-75.7927c3.2539-3.5927,6.7188-7.2814,10.2924-10.9892
		c0.7608,4.7115,3.2667,14.2047,3.7334,15.8094c0.5625,1.8986,3.3818,1.2338,2.7553-2.2375
		c-0.3452-0.9525-0.2941-1.8923-1.6237-6.7955c-0.8886-3.2923-1.8603-7.1216-2.4101-9.3143
		c0.5818-0.6009,1.1763-1.1954,1.758-1.7964c0.716,4.5964,3.3115,14.4541,3.7909,16.0906c0.5625,1.9051,3.3754,1.2338,2.7617-2.2439
		c-0.3516-0.9461-0.3069-1.8858-1.6302-6.7891c-0.9142-3.3946-1.937-7.4029-2.4676-9.5444
		c0.5945-0.5881,1.1891-1.1954,1.7836-1.7836c0.6584,4.4941,3.3306,14.6523,3.8229,16.3144
		c0.5562,1.8986,3.3818,1.2338,2.7681-2.2375c-0.3516-0.9525-0.3132-1.8923-1.6365-6.7955
		c-0.9461-3.4968-1.9945-7.633-2.5124-9.7234c0.6009-0.5945,1.2019-1.1954,1.8092-1.7899
		c0.6137,4.3983,3.3498,14.812,3.8485,16.4997c0.5562,1.9051,3.3818,1.2338,2.7617-2.2375
		c-0.3452-0.9525-0.3069-1.8923-1.6365-6.7955c-0.9653-3.5799-2.0329-7.812-2.5443-9.8577c0.6073-0.5945,1.221-1.1891,1.8283-1.7772
		c0.5753,4.3151,3.3626,14.9143,3.8676,16.6148c0.5562,1.8986,3.3818,1.2338,2.7553-2.2375
		c-0.3388-0.9525-0.3004-1.8923-1.6302-6.7955c-0.9781-3.6247-2.0649-7.9334-2.5635-9.9407
		c0.6137-0.5945,1.2274-1.1891,1.8347-1.7772c0.5498,4.264,3.3626,14.9846,3.874,16.6979c0.5562,1.9051,3.3754,1.2402,2.7553-2.2311
		c-0.3452-0.9525-0.3004-1.8923-1.6365-6.8019c-0.9845-3.6439-2.0841-7.9974-2.5827-9.9855
		c0.6265-0.5945,1.2402-1.1763,1.8539-1.7516c0.5306,4.2256,3.3689,15.0103,3.874,16.7299
		c0.5625,1.8987,3.3818,1.2338,2.7553-2.2375c-0.3388-0.9525-0.3004-1.8923-1.6302-6.7955
		c-0.9845-3.6695-2.0904-8.0293-2.5827-10.0047c8.7197-8.2658,16.3783-15.2915,21.1665-19.6897c0,0,0.6968,12.907,4.6923,19.2422
		c3.989,6.3417,7.9782,13.8532,9.3782,16.6596c1.3744,2.7553,4.737,11.5965-5.6385,32.8205
		c-4.2831,1.5343-9.2695,3.516-15.1508,5.7534L-85.6318,317.6628z"/>
	<path fill="#FFFFFF" stroke="#EC1C24" stroke-width="0.1855" d="M921.6773,301.2334c-91.9792,0-176.9136,65.7049-205.0803,190.5366
		c0.4603,2.8128,1.4,2.8128,2.5826,3.5224c7.5052,6.5654,14.5435,10.318,14.0833,27.9173h44.8134
		c0,0,12.9007-3.9826,15.7262-12.9006c2.8128-8.9178,12.1911-60.7824,27.9172-88.4695
		c15.7262-27.6806,54.4346-73.6766,114.9741-73.6766s99.0178,46.2198,139.6181,106.0625
		c11.0276,16.1928,21.3518,24.6378,22.2916,30.7365c1.3999,4.6924,3.7526,3.7526,4.9224,3.2924
		c1.1826-0.4667,7.0447-3.2924,4.9287-9.3845c-2.1223-6.0988-12.2037-37.0717-15.4896-45.7594
		c-3.2795-8.6814-9.8577-37.5447-9.8577-48.3422c0-10.7909-9.8575-37.3018-16.1865-44.1165
		c-6.3352-6.8019-8.9178-8.2083-17.1262-12.434c-8.2467-4.2193-62.9688-26.9775-128.1749-26.9775L921.6773,301.2334z"/>
	<path fill="#FFFFFF" stroke="#EC1C24" stroke-width="0.1855" d="M973.2668,305.7083
		c-33.0954-16.3399-80.1078-26.8561-109.048-31.6826c-33.7922-5.6257-73.2228-10.0878-129.0572-11.0276
		c-6.3352-4.6859-13.6166-13.1371-16.8961-19.0058c-3.2924-5.8686,0-15.0166,3.9826-25.5775c0,0,30.973,2.116,52.8043,3.989
		c91.0395,7.5051,138.9086,22.055,179.5027,38.4781c40.6006,16.423,70.8576,42.237,80.4786,52.3312
		c5.5616,5.8238,8.9883,10.3883,10.9125,13.2139c-10.676-4.7307-37.7173-14.8952-72.6858-20.7765L973.2668,305.7083z"/>
	<path fill="#FFFFFF" stroke="#EC1C24" stroke-width="0.1855" d="M-64.9193,271.8266
		c-9.7043-14.3902-9.0777-17.5162-12.8303-29.4068c0,0,20.3354-24.088,26.594-30.3464c1.8795,6.3352,5.3188,10.9508,9.6978,15.023
		c4.3855,4.0658,11.2705,1.5662,14.7097,0.6265c3.4393-0.9333,15.0166-10.6439,26.9007-20.9555
		c11.8906-10.3307,63.8254-57.2601,74.7763-66.6447c10.9445-9.3909,8.7581-18.1491,8.4385-19.7153
		c-0.3132-1.5662-2.1863-4.0722,1.2594-5.9389c96.6779-51.3147,217.4438-59.4464,307.5435-57.2536
		c90.1061,2.1863,141.7278,9.3846,216.4976,32.8524c4.0657,1.8731,5.9453,2.1863,9.6978,10.011
		c3.759,7.8247,35.6653,59.7597,41.6106,70.7105c4.9863,9.1928,26.741,43.554,31.7912,51.5129
		c-0.1727,0.0767-0.2684,0.1151-0.2684,0.1151l-7.8183,5.2996c-7.5115-12.5234-31.7145-52.8427-40.9073-67.5588
		c-10.9572-17.5226-33.1656-41.6041-88.2266-51.3084c-55.061-9.6978-153.305-9.3846-199.6079-9.3846
		s-94.7984,3.1261-165.8157,21.5884S52.0878,191.1371,32.6922,208.0204C13.2965,224.9229-30.5068,266.2203-67.425,309.7039
		c2.9407-5.3699,12.0184-23.4615,2.3653-37.9091L-64.9193,271.8266z"/>
	<path fill="#FFFFFF" stroke="#EC1C24" stroke-width="0.1855" d="M-167.5871,419.4996
		c13.1435-18.0788,41.7703-86.3535,81.8914-101.8433c7.096-2.7361,12.9325-4.9991,17.7847-6.8786
		c-0.0703,0.1086-0.1279,0.211-0.1854,0.3132c6.0987-2.3462,41.6041-13.6039,68.831-14.2367
		c50.3623-2.8128,98.2313,5.0822,128.9742,27.6104c29.2534,21.4413,77.4357,62.6556,86.5773,170.4312h0.4091
		c-0.1214,1.8666-0.4667,5.8494-1.3489,8.1316c-1.1763,3.0557-6.1051,10.5545-0.4731,16.423
		c1.1763,1.6366,0.7032,2.5826-0.4667,2.8128c-7.5115,0.9333-15.2467,3.9826-26.0505,0.2365
		c-10.7974-3.759-12.907-19.4787-14.7801-30.0396c-1.8731-10.5545-7.7481-41.7639-17.3691-59.3633
		c-9.6147-17.5992-46.4435-71.5607-121.3092-71.5607c-83.5279,0-112.8644,56.7805-133.04,90.5663
		c-20.1756,33.7922-50.9184,57.26-118.9631,56.5569l-11.9672-0.2365c14.8313-25.5071,48.3933-70.8318,61.4984-88.9235
		L-167.5871,419.4996z"/>
	<path fill="#FFFFFF" stroke="#EC1C24" stroke-width="0.1855" d="M-68.0517,311.1422c6.0987-2.3462,41.6041-13.6039,68.831-14.2368
		c50.3623-2.8128,98.2313,5.0822,128.9742,27.6104c29.2533,21.4413,77.4357,62.6556,86.5773,170.4312h140.788l-2.4868-395.4568
		c-46.2134,0.0064-94.6514,3.1644-165.5216,21.5884C118.093,139.541,52.0748,191.1626,32.6792,208.0459
		c-19.2679,16.7875-62.6364,57.6692-99.4012,100.8524c-0.4475,0.7032-0.895,1.4064-1.3425,2.2375L-68.0517,311.1422z
		 M89.2745,194.2824c8.138-11.264,23.7811-34.099,86.0403-56.9341c62.2592-22.8414,129.8372-25.6606,147.9798-25.6606
		c13.4504,0,21.9016,8.7581,21.9016,20.0285v101.0506c0,12.2038-9.3782,18.1427-20.0222,18.1427
		c-10.644,0-168.002,3.7526-200.2344,3.4457c-32.2195-0.3197-38.1584-16.5828-41.6041-24.7209
		c-3.452-8.1827-2.2375-24.1008,5.8813-35.352L89.2745,194.2824z"/>
	<path fill="#FFFFFF" stroke="#EC1C24" stroke-width="0.1855" d="M682.4597,228.5475l8.9948-6.1051c0,0,5.4019-2.116,12.6704-6.0987
		c0,0,5.8621,0.7032,15.72,1.8731c-3.2859,7.275-5.6384,17.5929-5.3955,21.8185c0.2302,4.2256,8.4385,15.7198,18.7692,25.341
		c5.3954,0.2365,62.6491,1.6429,122.0189,10.0941c48.2974,6.8722,90.0677,22.592,103.9656,28.224
		c-11.9162-1.4958-24.5291-2.4101-37.564-2.4101c-91.8641,0-176.6963,65.5388-204.9651,190.0572h-11.1427
		c0,0,1.6302-155.3316,2.8129-225.7287c-0.064,0.0639-18.1555-25.0597-25.9547-37.0141L682.4597,228.5475z"/>
	<path fill="#231F20" d="M-98.1616,262.8128c0,0-27.0158,26.3894-31.2799,30.4999c-4.264,4.1105-1.7452,12.3252-1.7452,12.3252
		l11.0659,4.7498l23.2314-10.1197l7.4284-21.9592l-8.6942-15.5344L-98.1616,262.8128z"/>
	<polygon fill="#231F20" points="-74.9559,242.4199 -81.2207,247.4702 -78.0883,267.4796 -68.691,283.7172 -71.8234,302.512 
		-78.0883,319.3889 -62.426,319.3889 -53.0287,305.0051 -51.1747,281.224 -54.3072,257.4429 	"/>
	<path fill="#231F20" d="M777.1366,519.0351c0,0,15.9564,26.2806,51.1486,37.0717c35.205,10.791,160.4968-1.8795,160.4968-1.8795
		l53.9742-61.0063c0,0,17.1261-1.8731,21.1216-0.2238c3.9827,1.6366,5.6257,7.9718,7.9781,10.7909
		c2.3397,2.8193,3.0492,4.2257,4.4557,4.4557c1.3999,0.2365,3.5223-5.8621,4.4557-7.9781c0.9397-2.1095,1.873-8.6814,3.989-9.8512
		c2.116-1.1762,12.6769-4.4621,15.2468-4.4621c2.5826,0,0.9398-5.4019,0.9398-5.4019l-11.0276-14.5499l-40.5878-62.4127
		l-38.4908-44.5832L923.55,334.1306l-71.3305,18.7691l-49.7486,66.1717l-30.2697,72.2702l4.9864,27.5528L777.1366,519.0351z"/>
	<path fill="#231F20" d="M184.7185,513.9847c0,0-10.9508,15.6431-15.6431,20.6423c-4.6923,5.0119-11.5709,12.2038-22.5217,17.2093
		c-10.9445,5.0054-222.136-27.8342-222.136-27.8342s-23.4615,0-28.1474-0.6329c-4.6987-0.6329-9.0777-5.3124-11.5837-9.0714
		c-2.4996-3.7526-4.6859-7.1919-9.3782-7.1919c-4.6987,0-13.1435-2.5124-14.0833,0c-0.9333,2.4995-2.1927,7.1919-4.3855,6.5655
		c-2.1863-0.6265,3.7526-5.9517-4.6923-6.5655c-8.4448-0.6329-20.3354-1.2531-22.835-1.2531c-2.4996,0-7.8247,5.6257-12.8303,7.8183
		c-5.0056,2.1927-2.8128,5.9388-16.5828,4.9993c-13.7636-0.9333-18.4559-12.8175-18.4559-12.8175l36.9182-9.391l40.9905-17.5226
		l36.605-46.9294l26.9008-30.3465l49.7485-38.4844l40.9777-13.4504l68.5177,11.2576l40.0507,14.7033l37.858,40.6772l22.835,40.9841
		l4.9991,43.797l-3.0685,12.9133L184.7185,513.9847z"/>
	<path fill="#231F20" d="M707.5194,489.3087l13.77,0.3195l11.8904,15.3299l1.8731,16.5764c0,0-4.0657,3.4329-7.8312,3.759
		c-148.5999-0.9333-515.903-4.379-515.903-4.379l-2.4996-14.3966l4.0722-7.1983l-0.0639-7.9781l12.255-5.1654l156.7444-5.9388
		l157.0576-7.1983l151.4319,12.5171l9.3783,2.506l0.9398,1.5662l6.8403-0.2558L707.5194,489.3087z"/>
	<polygon points="711.6107,477.0985 709.1176,496.4686 348.0538,497.1079 243.532,395.7185 66.4522,234.3011 98.9915,169.2226 
		139.0102,146.0808 189.1295,127.2861 270.4456,109.1945 345.5606,104.7836 357.4512,89.1212 522.5764,94.1715 603.3171,115.4595 
		634.0026,137.962 694.0306,233.0864 717.8117,267.4796 722.2227,404.5405 	"/>
	<polygon fill="#231F20" points="-185.8705,410.6137 -195.7153,410.6137 -214.5101,412.979 -237.4601,414.833 -258.1087,423.2715 
		-251.0767,437.3355 -223.8435,445.3264 -194.7564,441.5547 -188.1719,431.7098 	"/>
	
		<linearGradient id="SVGID_2_" gradientUnits="userSpaceOnUse" x1="-624.5824" y1="84.795" x2="-624.5824" y2="107.1571" gradientTransform="matrix(-1 0 0 -1 -862.85 598)">
		<stop  offset="0.191" style="stop-color:#626366"/>
		<stop  offset="1" style="stop-color:#BBBDBF"/>
	</linearGradient>
	<path fill="url(#SVGID_2_)" stroke="#FFFFFF" stroke-width="0.1855" d="M-230.7477,490.843c0,0-20.3418,0.1471-23.9346,0.1471
		s-9.0714,1.8795-5.3251,7.1983c3.7589,5.3188,9.3909,14.8633,9.3909,14.8633s2.4996,0.1533,3.4393,0.1533
		c0.9333,0,18.9227-0.62,19.8687-0.62c0.9333,0,0.7735-4.3919,0.9333-4.8521c0.147-0.4731,9.2312-2.1864,9.2312-2.1864
		l1.8731-7.9781l-15.5344-6.7123L-230.7477,490.843z"/>
	<path fill="#0F00E7" stroke="#FFFFFF" stroke-width="0.1855" d="M-229.3412,473.0073c0,0-4.5325,23.9282-2.3462,28.7803
		c2.1927,4.8521,7.665,4.8521,7.665,4.8521l20.6486-28.6333l-25.9547-4.9863L-229.3412,473.0073z"/>
	<polygon fill="#231F20" points="1082.3276,405.4356 1133.6616,419.8193 1138.6479,427.0432 1126.118,430.4952 1097.3505,443.2807 
		1090.1267,441.4269 	"/>
	<polygon fill="#231F20" points="723.4374,219.5977 718.3232,238.2007 735.9672,260.4475 806.991,263.58 899.4304,275.7902 
		977.6779,303.7905 973.7783,308.649 956.39,307.0509 881.7863,283.909 781.6754,272.4659 730.3415,268.886 711.2911,248.0455 
		711.7387,228.8672 717.3641,219.1503 	"/>
	<path fill="#231F20" d="M389.9904,250.6027c-1.6813,0.0128-2.5826,0.0128-2.5826,0.0128s0.8951,0,2.5571,0L389.9904,250.6027z
		 M377.5884,248.4292c-0.3133-0.1534-0.62-0.3452-0.9269-0.5242v0.032c0.2557,0.1918,0.5753,0.3836,0.8951,0.5114L377.5884,248.4292
		z M369.086,131.3775v102.3036c0,7.7864,3.5927,11.9609,7.5882,14.2303c-0.0191-0.4091-0.0767-0.7991-0.0767-1.2466v-99.4843
		c0-11.8586,6.5719-16.1992,14.7864-16.1992c8.2083,0,74.9553-0.4539,104.119,2.7425c29.1575,3.1964,60.1687,9.5764,80.5041,18.9354
		c20.3354,9.3526,27.3163,23.7236,30.6021,29.6625c3.2859,5.9261,21.3583,38.5548,24.2286,44.4873
		c2.8768,5.9389,4.7244,11.1809,4.7244,16.8833c0,1.643-0.1407,3.663-0.5944,5.7343c5.5361-0.0128,9.3589-0.0256,11.002-0.0256
		c16.6594,0,19.0121-12.2038,19.0121-18.7692c0-5.8686-2.116-11.2705-5.4019-17.3691
		c-3.2859-6.0987-23.9282-39.6544-27.6871-45.7531c-3.7526-6.1051-11.7307-20.8852-34.962-30.5063
		c-23.2249-9.6147-58.66-16.1929-91.9856-19.4724c-33.3192-3.2923-109.572-2.8192-118.9631-2.8192
		c-9.4614,0-16.9408,4.4749-16.9408,16.6851L369.086,131.3775z M385.3236,250.4749c-1.2593-0.1151-2.9791-0.3708-4.8202-0.9333
		c1.79,0.6393,3.516,0.895,4.7946,0.9589L385.3236,250.4749z"/>
	<path fill="#231F20" d="M83.3931,229.6344c3.4457,8.1316,9.3846,24.4012,41.6041,24.7209
		c32.2323,0.3069,189.5904-3.4457,200.2344-3.4457c10.644,0,20.0222-5.9389,20.0222-18.1427V131.6972
		c0-11.2705-8.4513-20.0285-21.9016-20.0285c-18.1427,0-85.7271,2.8192-147.9798,25.6605
		c-62.2592,22.835-77.9023,45.6699-86.0403,56.9341c-8.1188,11.2512-9.3335,27.1693-5.8813,35.352L83.3931,229.6344z
		 M136.9646,199.5244c7.0193-9.1992,20.5208-27.8597,73.9707-46.3156c52.6765-18.1938,109.668-20.4057,126.1934-20.3802
		l0.2749,48.6234c0,18.7692,0.3132,50.0618,0.3132,50.0618s-0.211,7.6074-5.4595,10.4906
		c-34.5274,0.716-141.1141,3.5416-164.9974,3.1964c-27.6168-0.4028-32.6351-10.0175-35.5502-16.7044
		c-2.9407-6.7124-1.79-19.7536,5.2421-28.9592L136.9646,199.5244z"/>
	
		<linearGradient id="SVGID_3_" gradientUnits="userSpaceOnUse" x1="-894.5753" y1="414.507" x2="-868.7482" y2="440.3977" gradientTransform="matrix(-1 0 0 -1 -862.85 598)">
		<stop  offset="0.0281" style="stop-color:#BBBDBF"/>
		<stop  offset="1" style="stop-color:#FFFFFF"/>
	</linearGradient>
	<path fill="url(#SVGID_3_)" stroke="#231F20" stroke-width="0.1855" d="M83.3291,120.4458
		c0.3132,1.5662,2.506,10.3244-8.4385,19.7153c-10.9508,9.3846-62.8857,56.314-74.7763,66.6447
		c-11.8906,10.3179-23.4615,20.0222-26.9007,20.9555c-3.4393,0.9397-10.3244,3.4393-14.7097-0.6265
		c-3.9124-3.6439-7.0704-7.7224-9.0457-13.0797c19.2422-19.1463,52.4079-45.4334,73.7279-59.197
		c19.5874-12.6449,52.7659-33.3895,59.3569-37.5128c0.0639,1.2146,0.7032,2.3653,0.8311,3.1964L83.3291,120.4458z"/>
	<path fill="#231F20" d="M-45.9966,214.931c1.5918,3.3626,3.8676,6.4183,7.1088,9.4294c2.4293,2.2631,7.0576,0.9333,10.1134,0.0575
		l1.0292-0.3004c1.5918-0.4987,7.2942-4.4046,25.4496-20.1692l34.636-30.8962c16.8577-15.1125,34.2973-30.7429,40.1594-35.7611
		c3.5672-3.0622,7.5051-7.7224,7.5051-13.4056c0-0.1534-0.0448-0.3132-0.0448-0.4731l-1.5279-3.4713
		c1.822-1.1379,3.2603-2.0329,4.168-2.6083c0.0064,1.1443,0.6201,2.2566,0.7863,3.0941c0.3132,1.5662,2.506,10.3244-8.4385,19.7153
		c-10.9508,9.3846-62.8857,56.314-74.7763,66.6447c-11.8906,10.3179-23.4615,20.0222-26.9008,20.9555
		c-3.4393,0.9398-10.3244,3.4393-14.7097-0.6265c-3.9124-3.6439-7.0704-7.7224-9.0457-13.0797
		c0.9078-0.9014,1.8667-1.8283,2.8256-2.7488c0.6393,1.3425,1.2785,2.6211,1.79,3.7078L-45.9966,214.931z"/>
	
		<radialGradient id="SVGID_4_" cx="-1793.0935" cy="99.6134" r="116.3868" gradientTransform="matrix(-1 0 0 -1 -862.85 598)" gradientUnits="userSpaceOnUse">
		<stop  offset="0" style="stop-color:#FFFFFF"/>
		<stop  offset="1" style="stop-color:#000000"/>
	</radialGradient>
	<circle fill="url(#SVGID_4_)" cx="930.2435" cy="498.3865" r="116.3868"/>
	
		<radialGradient id="SVGID_5_" cx="-1793.0935" cy="99.6134" r="96.9911" gradientTransform="matrix(-1 0 0 -1 -862.85 598)" gradientUnits="userSpaceOnUse">
		<stop  offset="0.8483" style="stop-color:#FFFFFF"/>
		<stop  offset="1" style="stop-color:#BBBDBF"/>
	</radialGradient>
	<circle fill="url(#SVGID_5_)" cx="930.2435" cy="498.3865" r="96.9911"/>
	
		<radialGradient id="SVGID_6_" cx="-1793.1573" cy="99.6134" r="78.2155" gradientTransform="matrix(-1 0 0 -1 -862.85 598)" gradientUnits="userSpaceOnUse">
		<stop  offset="0.8146" style="stop-color:#626366"/>
		<stop  offset="1" style="stop-color:#BBBDBF"/>
	</radialGradient>
	<circle fill="url(#SVGID_6_)" cx="930.3074" cy="498.3865" r="78.2155"/>
	<circle fill="#231F20" cx="930.2435" cy="498.3865" r="59.9387"/>
	
		<radialGradient id="SVGID_7_" cx="-1793.1222" cy="99.6134" r="62.8905" gradientTransform="matrix(-1 0 0 -1 -862.85 598)" gradientUnits="userSpaceOnUse">
		<stop  offset="0.8202" style="stop-color:#8A8C8F"/>
		<stop  offset="1" style="stop-color:#626366"/>
	</radialGradient>
	<path fill="url(#SVGID_7_)" d="M867.4025,498.3866c0,34.732,28.1473,62.8857,62.8793,62.8857
		c34.7256,0,62.8857-28.1537,62.8857-62.8857s-28.1602-62.8857-62.8857-62.8857c-34.7767,0-62.9048,28.1282-62.9048,62.9048
		L867.4025,498.3866z M984.3264,490.8431c-1.8986,0.5689-4.0786-1.0549-4.8648-3.6375l-2.5699-8.5343
		c-0.7862-2.5826,0.1278-5.1397,2.0264-5.7152c1.8986-0.5689,4.0786,1.0484,4.8648,3.631l2.5699,8.5343
		c0.7671,2.4933-0.1278,5.0503-2.0457,5.6257L984.3264,490.8431z M972.9473,525.3003l4.2128-7.8632
		c1.2722-2.3782,3.7271-3.5352,5.4786-2.6019c1.7453,0.9398,2.1415,3.6183,0.8567,5.9963l-4.2001,7.8632
		c-1.2722,2.3717-3.7271,3.5415-5.4786,2.5955c-1.726-0.9589-2.1096-3.6439-0.8311-6.0092L972.9473,525.3003z M957.2211,455.6829
		l-7.8632-4.2192c-2.3782-1.2658-3.5353-3.7206-2.6082-5.4721c0.9462-1.758,3.6375-2.1415,6.0092-0.8758l7.8632,4.2192
		c2.3782,1.2786,3.5479,3.7335,2.6082,5.4786c-0.9589,1.79-3.6439,2.1735-6.0092,0.8951V455.6829z M941.4309,547.611l8.5343-2.5826
		c2.5826-0.78,5.1461,0.1277,5.7215,2.0264c0.5817,1.9051-1.0549,4.0851-3.6375,4.8648l-8.5343,2.5699
		c-2.5826,0.7863-5.1397-0.1277-5.7214-2.0264c-0.6393-1.9178,0.9589-4.0915,3.5799-4.8586L941.4309,547.611z M919.1202,449.1623
		l-8.5343,2.5764c-2.5826,0.78-5.1397-0.1278-5.7215-2.0328c-0.5753-1.8987,1.0549-4.0786,3.6375-4.8586l8.5343-2.5764
		c2.5826-0.78,5.1397,0.1278,5.7214,2.0264c0.5753,1.9178-1.0228,4.0915-3.6439,4.8586L919.1202,449.1623z M897.3209,541.9215
		c0.9333-1.7453,3.6246-2.1353,5.9963-0.8693l7.8632,4.2128c2.3782,1.2722,3.548,3.7271,2.6082,5.4786
		c-0.9333,1.7515-3.6246,2.1415-6.0093,0.863l-7.8632-4.2064c-2.3653-1.2147-3.5159-3.7077-2.621-5.4339L897.3209,541.9215z
		 M883.3846,479.2724c-1.2722,2.3782-3.7206,3.5479-5.4786,2.6082c-1.7453-0.9398-2.1415-3.6246-0.8566-6.0092l4.2064-7.8568
		c1.2722-2.3717,3.7271-3.5352,5.4721-2.6019c1.758,0.9398,2.1415,3.6246,0.8694,5.9963l-4.2833,7.8632L883.3846,479.2724z
		 M874.179,511.5558c-0.78-2.5764,0.1278-5.1397,2.0264-5.7088c1.9115-0.5753,4.0786,1.0549,4.8648,3.6246l2.5699,8.5343
		c0.7863,2.5764-0.1277,5.1461-2.0264,5.7152c-1.8986,0.5818-4.0786-1.042-4.8521-3.6375l-2.5571-8.5663L874.179,511.5558z"/>
	
		<linearGradient id="SVGID_8_" gradientUnits="userSpaceOnUse" x1="-1793.0935" y1="145.6095" x2="-1793.0935" y2="53.6174" gradientTransform="matrix(-1 0 0 -1 -862.85 598)">
		<stop  offset="0.0056" style="stop-color:#F0F0F0"/>
		<stop  offset="0.5169" style="stop-color:#ADADAD"/>
		<stop  offset="1" style="stop-color:#DBDBDB"/>
	</linearGradient>
	<circle fill="url(#SVGID_8_)" cx="930.2435" cy="498.3865" r="45.996"/>
	
		<radialGradient id="SVGID_9_" cx="-903.0279" cy="93.988" r="116.3868" gradientTransform="matrix(-1 0 0 -1 -862.85 598)" gradientUnits="userSpaceOnUse">
		<stop  offset="0" style="stop-color:#FFFFFF"/>
		<stop  offset="1" style="stop-color:#000000"/>
	</radialGradient>
	<circle fill="url(#SVGID_9_)" cx="40.1779" cy="504.012" r="116.3868"/>
	
		<radialGradient id="SVGID_10_" cx="-903.0279" cy="93.988" r="96.9911" gradientTransform="matrix(-1 0 0 -1 -862.85 598)" gradientUnits="userSpaceOnUse">
		<stop  offset="0.8483" style="stop-color:#FFFFFF"/>
		<stop  offset="1" style="stop-color:#BBBDBF"/>
	</radialGradient>
	<circle fill="url(#SVGID_10_)" cx="40.1779" cy="504.012" r="96.9911"/>
	
		<radialGradient id="SVGID_11_" cx="-903.0279" cy="93.988" r="78.2219" gradientTransform="matrix(-1 0 0 -1 -862.85 598)" gradientUnits="userSpaceOnUse">
		<stop  offset="0.8146" style="stop-color:#626366"/>
		<stop  offset="1" style="stop-color:#BBBDBF"/>
	</radialGradient>
	<circle fill="url(#SVGID_11_)" cx="40.1779" cy="504.012" r="78.2219"/>
	<circle fill="#231F20" cx="40.1779" cy="504.012" r="59.9387"/>
	
		<radialGradient id="SVGID_12_" cx="-902.996" cy="93.9912" r="62.8873" gradientTransform="matrix(-1 0 0 -1 -862.85 598)" gradientUnits="userSpaceOnUse">
		<stop  offset="0.8202" style="stop-color:#8A8C8F"/>
		<stop  offset="1" style="stop-color:#626366"/>
	</radialGradient>
	<path fill="url(#SVGID_12_)" d="M-22.7269,504.012c0,34.7321,28.1538,62.8793,62.8857,62.8793
		c34.7256,0,62.8793-28.1473,62.8793-62.8793c0-34.7383-28.1538-62.8857-62.8793-62.8857
		c-34.7127,0-62.9048,28.1281-62.9048,62.9048L-22.7269,504.012z M94.2608,496.4686c-1.8986,0.5753-4.0722-1.0548-4.8585-3.631
		l-2.5763-8.5407c-0.7863-2.5826,0.1342-5.1397,2.0329-5.7152c1.8986-0.5689,4.0722,1.0549,4.8521,3.6311l2.5827,8.5471
		c0.7671,2.5571-0.1279,5.1141-2.0457,5.6897L94.2608,496.4686z M82.8817,530.9257l4.2065-7.8567
		c1.2722-2.3845,3.7269-3.5415,5.4786-2.6082c1.7516,0.9333,2.1416,3.6246,0.863,6.0028l-4.2065,7.8568
		c-1.2722,2.3717-3.7269,3.5415-5.4786,2.6019c-1.79-0.9589-2.1735-3.6439-0.895-6.0092L82.8817,530.9257z M67.0915,461.3084
		l-7.8631-4.2064c-2.3781-1.2722-3.5416-3.727-2.6083-5.4786c0.9398-1.7453,3.6311-2.1415,6.0092-0.8693l7.8567,4.2128
		c2.3717,1.2786,3.5352,3.727,2.6018,5.4785c-0.9589,1.79-3.6439,2.1735-6.0092,0.8951L67.0915,461.3084z M51.3014,553.2365
		l8.5344-2.5764c2.5827-0.78,5.1461,0.1277,5.7216,2.0264c0.5753,1.9051-1.0548,4.0786-3.6375,4.8586l-8.5344,2.5826
		c-2.5827,0.78-5.1398-0.1278-5.7216-2.0393c-0.5753-1.9177,1.0229-4.0914,3.5799-4.8586L51.3014,553.2365z M29.0546,454.7878
		l-8.5407,2.5764c-2.5827,0.78-5.1398-0.1278-5.7151-2.0264c-0.5753-1.9051,1.042-4.085,3.6375-4.8586l8.5344-2.5826
		c2.5827-0.78,5.1398,0.1278,5.7151,2.0393c0.5753,1.9178-1.0868,4.0915-3.6439,4.8586L29.0546,454.7878z M7.2552,547.547
		c0.9333-1.7453,3.6247-2.1353,5.9964-0.8566l7.8567,4.2001c2.3845,1.2786,3.5479,3.727,2.6083,5.4785
		c-0.9333,1.7516-3.6311,2.1415-6.0028,0.8694l-7.8631-4.2064c-2.4293-1.3424-3.5799-3.8357-2.6211-5.5616L7.2552,547.547z
		 M-6.745,484.9617c-1.2722,2.3844-3.7269,3.5544-5.4786,2.6082c-1.7452-0.9333-2.1416-3.6246-0.863-5.9963l4.2128-7.8632
		c1.2722-2.3782,3.7269-3.5415,5.4722-2.6082c1.758,0.9333,2.1416,3.6246,0.8694,5.9963l-4.2193,7.8632H-6.745z M-15.9506,517.1813
		c-0.7863-2.5764,0.1279-5.127,2.0265-5.7088c1.8986-0.5753,4.0786,1.0549,4.8585,3.631l2.5763,8.5408
		c0.7735,2.5826-0.1279,5.1396-2.0265,5.7214c-1.9051,0.5689-4.085-1.0549-4.8649-3.6375l-2.5571-8.6302L-15.9506,517.1813z"/>
	
		<linearGradient id="SVGID_13_" gradientUnits="userSpaceOnUse" x1="-903.0279" y1="139.984" x2="-903.0279" y2="47.9919" gradientTransform="matrix(-1 0 0 -1 -862.85 598)">
		<stop  offset="0.0056" style="stop-color:#F0F0F0"/>
		<stop  offset="0.5169" style="stop-color:#ADADAD"/>
		<stop  offset="1" style="stop-color:#DBDBDB"/>
	</linearGradient>
	<circle fill="url(#SVGID_13_)" cx="40.1779" cy="504.012" r="45.996"/>
	
		<linearGradient id="SVGID_14_" gradientUnits="userSpaceOnUse" x1="-1942.1888" y1="204.7593" x2="-1942.1888" y2="258.5187" gradientTransform="matrix(-1 0 0 -1 -862.85 598)">
		<stop  offset="0.191" style="stop-color:#626366"/>
		<stop  offset="1" style="stop-color:#BBBDBF"/>
	</linearGradient>
	<path fill="url(#SVGID_14_)" d="M1089.3595,392.2665c-1.5405-1.7835-2.5123-6.0603-6.2841-7.7928
		c-0.1853-10.9827-9.9152-37.0462-16.1865-43.797c-0.3835-0.4155-0.7671-0.8055-1.1251-1.1955
		c5.063,1.7773,15.5537,5.4914,18.0276,6.6421c3.2987,1.5215,6.3353,8.1061,6.8403,13.182l2.2822,33.2105
		c0,0-1.7899,1.79-3.58-0.2558L1089.3595,392.2665z"/>
	
		<linearGradient id="SVGID_15_" gradientUnits="userSpaceOnUse" x1="-1333.677" y1="78.0698" x2="-1333.677" y2="86.8279" gradientTransform="matrix(-1 0 0 -1 -862.85 598)">
		<stop  offset="0.191" style="stop-color:#626366"/>
		<stop  offset="1" style="stop-color:#BBBDBF"/>
	</linearGradient>
	<polygon fill="url(#SVGID_15_)" points="217.5773,513.7292 724.0767,519.9302 724.0767,517.4369 217.5773,511.1721 	"/>
	
		<linearGradient id="SVGID_16_" gradientUnits="userSpaceOnUse" x1="-1333.677" y1="74.2981" x2="-1333.677" y2="81.7777" gradientTransform="matrix(-1 0 0 -1 -862.85 598)">
		<stop  offset="0.191" style="stop-color:#626366"/>
		<stop  offset="1" style="stop-color:#BBBDBF"/>
	</linearGradient>
	<polygon fill="url(#SVGID_16_)" points="217.5773,518.7155 724.0767,523.7019 724.0767,521.2086 217.5773,516.2222 	"/>
	<path fill="#0F00E7" stroke="#FFFFFF" stroke-width="0.1855" d="M-135.1119,299.1238c0,0-16.3527-0.5434-21.6651-0.3132
		c-5.3123,0.2365-13.3736,1.1763-16.5828,3.5927c-3.2092,2.4229-9.7746,10.1709-9.7746,10.1709s1.1699,1.0932,3.6695,1.0932
		c17.9957,1.4831,30.973,4.4558,30.973,4.4558l13.4249-18.9865L-135.1119,299.1238z"/>
	
		<linearGradient id="SVGID_17_" gradientUnits="userSpaceOnUse" x1="-1302.7883" y1="73.6165" x2="-1302.7883" y2="541.0707" gradientTransform="matrix(-1 0 0 -1 -862.85 598)">
		<stop  offset="0" style="stop-color:#0029FF"/>
		<stop  offset="0.0241" style="stop-color:#0030FF"/>
		<stop  offset="0.1658" style="stop-color:#0057FF"/>
		<stop  offset="0.3132" style="stop-color:#0076FF"/>
		<stop  offset="0.4656" style="stop-color:#008FFF"/>
		<stop  offset="0.625" style="stop-color:#00A0FF"/>
		<stop  offset="0.7963" style="stop-color:#00ABFF"/>
		<stop  offset="1" style="stop-color:#00AEFF"/>
	</linearGradient>
	<path fill="url(#SVGID_17_)" stroke="#FFFFFF" stroke-width="0.1855" d="M-70.4169,311.7814
		c10.3755-21.224,7.0193-30.0652,5.6385-32.8205c-1.4-2.8128-5.3891-10.3244-9.3782-16.6596
		c-3.9955-6.3352-4.6923-19.2422-4.6923-19.2422c-4.7946,4.3982-12.4468,11.4239-21.1665,19.6897
		c0.4922,1.9754,1.5982,6.3352,2.5827,10.0047c1.3297,4.9033,1.2913,5.843,1.6302,6.7955c0.6265,3.4649-2.1927,4.1361-2.7553,2.2375
		c-0.505-1.7261-3.3434-12.5042-3.874-16.7299c-0.6137,0.5753-1.2274,1.1635-1.8539,1.7516
		c0.4987,1.9882,1.5982,6.3416,2.5827,9.9855c1.3297,4.9097,1.2913,5.8493,1.6365,6.8019c0.6201,3.4649-2.1991,4.1297-2.7553,2.2311
		c-0.5114-1.7133-3.3243-12.4276-3.874-16.6979c-0.6073,0.5881-1.221,1.1826-1.8347,1.7772
		c0.4986,2.0073,1.5854,6.3161,2.5635,9.9407c1.3297,4.9032,1.2913,5.843,1.6302,6.7955c0.6265,3.4649-2.1991,4.1361-2.7553,2.2375
		c-0.505-1.7005-3.2923-12.2997-3.8676-16.6148c-0.6009,0.5881-1.2146,1.1826-1.8283,1.7772
		c0.5178,2.0457,1.5854,6.2776,2.5443,9.8577c1.3297,4.9032,1.2913,5.843,1.6365,6.7955c0.6201,3.4649-2.2055,4.1361-2.7617,2.2375
		c-0.4922-1.6877-3.2284-12.0951-3.8485-16.4997c-0.6009,0.5945-1.2019,1.1954-1.8092,1.7899
		c0.5242,2.0904,1.5662,6.2266,2.5124,9.7234c1.3233,4.9032,1.285,5.843,1.6365,6.7955c0.6137,3.4713-2.2119,4.1361-2.7681,2.2375
		c-0.4859-1.6685-3.1644-11.8202-3.8229-16.3144l-1.7836,1.7836c0.5305,2.1416,1.5534,6.1499,2.4676,9.5444
		c1.3233,4.9033,1.285,5.843,1.6302,6.7891c0.6137,3.4713-2.1991,4.1425-2.7617,2.2439
		c-0.4794-1.6365-3.0749-11.4942-3.7909-16.0906c-0.5818,0.6009-1.1763,1.1954-1.758,1.7964
		c0.5498,2.1863,1.5215,6.022,2.4101,9.3143c1.3297,4.9032,1.285,5.843,1.6237,6.7955c0.6265,3.4649-2.1927,4.1297-2.7553,2.2375
		c-0.4667-1.6046-2.9726-11.0915-3.7334-15.8094c-2.8256,2.9279-5.5872,5.8494-8.2275,8.7197
		c-0.7032,0.7608-1.3872,1.5151-2.0649,2.2694c-19.9454,22.0615-31.2095,57.7268-36.8351,75.7927
		c-5.6385,18.0723-19.7153,43.6434-21.5948,47.6389c-1.8667,3.989,0,7.5052-0.4603,10.318c-0.4731,2.8193-6.8083,6.105-6.8083,6.105
		l17.4778,4.3726c7.6265-10.5674,14.4348-19.8303,18.897-25.9547c13.1435-18.0788,41.7704-86.3535,81.8914-101.8432
		c5.8813-2.1096,10.8677-4.0914,15.2148-5.7534L-70.4169,311.7814z M921.6773,301.2334
		c-91.9792,0-176.9136,65.7049-205.0803,190.5366c0.4603,2.8128,1.4,2.8128,2.5826,3.5224
		c7.5052,6.5654,14.5435,10.318,14.0833,27.9173h44.8134c0,0,12.9007-3.9826,15.7262-12.9006
		c2.8128-8.9178,12.1911-60.7824,27.9172-88.4695c15.7262-27.6806,54.4346-73.6766,114.9741-73.6766
		s99.0178,46.2198,139.6181,106.0625c11.0276,16.1928,21.3518,24.6378,22.2916,30.7365c1.3999,4.6924,3.7526,3.7526,4.9224,3.2924
		c1.1826-0.4667,7.0447-3.2924,4.9287-9.3845c-2.1223-6.0988-12.2037-37.0717-15.4896-45.7594
		c-3.2795-8.6814-9.8577-37.5447-9.8577-48.3422c0-10.7909-9.8575-37.3018-16.1865-44.1165
		c-6.3352-6.8019-8.9178-8.2083-17.1262-12.434c-8.2467-4.2193-62.9688-26.9775-128.1749-26.9775L921.6773,301.2334z
		 M1045.8888,326.421c-1.9242-2.8256-5.3508-7.3901-10.9125-13.2139c-9.6211-10.0942-39.8782-35.9018-80.4785-52.3313
		c-40.5877-16.423-88.4568-30.973-179.5027-38.4781c-21.8314-1.8731-52.8044-3.989-52.8044-3.989
		c-3.9826,10.5608-7.275,19.7089-3.9826,25.5775c3.2731,5.8622,10.5609,14.3134,16.8961,19.0057
		c55.8345,0.9398,95.2651,5.3955,129.0572,11.0276c28.9401,4.8266,75.9526,15.3426,109.048,31.6825
		c35.0324,5.8813,62.0737,16.0458,72.6858,20.7126L1045.8888,326.421z M408.9769,102.5461c18.539,0,78.8421-0.2301,129.5239,6.5653
		c50.6819,6.8083,74.1433,22.9948,85.1773,32.1428c11.0276,9.1608,30.0332,40.3639,41.7703,61.7159
		c11.7307,21.3518,38.4844,63.3587,38.4844,63.3587l-1.1826,225.0192l-342.8124,3.9955l-2.8128-392.7974h51.8453H408.9769z
		 M369.086,233.6618c0,17.5993,18.3089,16.8961,18.3089,16.8961s241.9153-1.1699,258.5748-1.1699
		c16.6594,0,19.0121-12.2038,19.0121-18.7692c0-5.8686-2.116-11.2704-5.4019-17.3691
		c-3.2859-6.0987-23.9282-39.6544-27.6871-45.7531c-3.7526-6.1051-11.7307-20.8852-34.962-30.5063
		c-23.2249-9.6147-58.66-16.1929-91.9856-19.4724c-33.3192-3.2923-109.572-2.8192-118.9631-2.8192
		c-9.3783,0-16.8961,4.4621-16.8961,16.6596v102.3482L369.086,233.6618z M-67.4763,309.7357
		c36.9182-43.49,80.7152-84.7809,100.1172-101.6835c19.3956-16.8897,85.4139-68.5113,156.4311-86.9673
		c71.0173-18.4623,119.5128-21.5884,165.8157-21.5884s144.5469-0.3132,199.6079,9.3846
		c55.061,9.7043,77.2695,33.7922,88.2266,51.3084c9.1927,14.7162,33.4023,55.0353,40.9073,67.5588l7.8183-5.2996
		c0,0,0.096-0.0383,0.2684-0.1151c-5.0503-7.9526-26.8048-42.3201-31.7912-51.5129c-5.9452-10.9508-37.8515-62.8857-41.6105-70.7105
		c-3.7526-7.8247-5.6321-8.1316-9.6978-10.011c-74.77-23.4679-126.3915-30.6598-216.4976-32.8525
		c-90.0997-2.1927-210.8656,5.9389-307.5435,57.2536c-3.4457,1.8667-1.5726,4.379-1.2594,5.9389
		c0.3132,1.5662,2.506,10.3244-8.4385,19.7153c-10.9508,9.3846-62.8857,56.314-74.7763,66.6447
		c-11.8906,10.3179-23.4615,20.0222-26.9008,20.9555c-3.4393,0.9398-10.3244,3.4393-14.7097-0.6265
		c-4.379-4.0722-7.8184-8.6814-9.6978-15.0231c-6.2585,6.2586-26.594,30.3465-26.594,30.3465
		c3.7526,11.8906,3.1261,15.0166,12.8303,29.4068c9.8448,14.4476,0.7671,32.5392-2.3653,37.9091L-67.4763,309.7357z
		 M-229.0217,508.4871l11.9672,0.2365c68.0511,0.7031,98.7875-22.7647,118.963-56.5569
		c20.1756-33.7858,49.512-90.5663,133.04-90.5663c74.8657,0,111.6945,53.9614,121.3092,71.5607
		c9.6212,17.5992,15.4961,48.8089,17.3691,59.3633c1.8731,10.5609,3.9827,26.2806,14.7801,30.0397
		c10.7974,3.7462,18.5327,0.6969,26.0505-0.2365c1.1699-0.2302,1.6365-1.1762,0.4667-2.8128
		c-5.6257-5.8686-0.7032-13.3738,0.4731-16.4231c0.8822-2.2886,1.2274-6.2712,1.3489-8.1316h-0.4091
		c-9.1481-107.7758-57.3304-148.9899-86.5773-170.4313c-30.7492-22.5281-78.6119-30.4232-128.9742-27.6104
		c-27.2268,0.6329-62.7323,11.8906-68.831,14.2367c0.0576-0.1023,0.1151-0.2046,0.1854-0.3132
		c-4.8521,1.8795-10.6887,4.1425-17.7847,6.8786c-40.121,15.4897-68.7479,83.7708-81.8914,101.8431
		c-13.1691,18.0277-46.7311,63.3524-61.4984,88.9235H-229.0217z M-66.7092,308.9047
		c36.7649-43.1832,80.1334-84.0586,99.4012-100.8524c19.3956-16.8897,85.4139-68.5113,156.4311-86.9673
		c70.8703-18.424,119.3147-21.5756,165.5216-21.5884l2.4868,395.4568h-140.788c-9.148-107.7758-57.3304-148.9899-86.5773-170.4313
		C99.0171,301.9941,51.1544,294.099,0.7921,296.9118c-27.2268,0.6329-62.7323,11.8906-68.831,14.2367
		c0.4475-0.8311,0.895-1.5343,1.3425-2.2375L-66.7092,308.9047z M83.393,229.6344c3.4457,8.1316,9.3846,24.4012,41.6041,24.7209
		c32.2324,0.3069,189.5904-3.4457,200.2344-3.4457c10.644,0,20.0222-5.9389,20.0222-18.1427V131.6972
		c0-11.2705-8.4513-20.0285-21.9016-20.0285c-18.1427,0-85.7271,2.8192-147.9798,25.6605
		c-62.2592,22.835-77.9024,45.6699-86.0403,56.9341c-8.1189,11.2512-9.3335,27.1693-5.8813,35.352L83.393,229.6344z
		 M708.3503,265.6257c-1.1827,70.3972-2.8129,225.7287-2.8129,225.7287h11.1427
		c28.2624-124.5184,113.1008-190.0571,204.9651-190.0571c13.0413,0,25.6478,0.9142,37.564,2.4101
		c-13.8979-5.6257-55.6683-21.3455-103.9656-28.224c-59.3696-8.4449-116.6234-9.8577-122.0189-10.0941
		c-10.3307-9.6147-18.539-21.1153-18.7692-25.341c-0.2429-4.2256,2.1095-14.5435,5.3954-21.8185
		c-9.8641-1.1763-15.7199-1.8731-15.7199-1.8731c-7.275,3.989-12.6705,6.0987-12.6705,6.0987l-8.9947,6.1051
		c7.8632,11.8905,25.9547,37.0141,25.9547,37.0141L708.3503,265.6257z"/>
	
		<radialGradient id="SVGID_18_" cx="-1793.0935" cy="99.6134" r="25.9993" gradientTransform="matrix(-1 0 0 -1 -862.85 598)" gradientUnits="userSpaceOnUse">
		<stop  offset="0.0056" style="stop-color:#595959"/>
		<stop  offset="1" style="stop-color:#969696"/>
	</radialGradient>
	<circle fill="url(#SVGID_18_)" stroke="#808184" stroke-width="0.371" cx="930.2435" cy="498.3865" r="25.9993"/>
	
		<radialGradient id="SVGID_19_" cx="-903.0279" cy="93.988" r="25.9994" gradientTransform="matrix(-1 0 0 -1 -862.85 598)" gradientUnits="userSpaceOnUse">
		<stop  offset="0.0056" style="stop-color:#595959"/>
		<stop  offset="1" style="stop-color:#969696"/>
	</radialGradient>
	<circle fill="url(#SVGID_19_)" stroke="#808184" stroke-width="0.371" cx="40.1779" cy="504.012" r="25.9993"/>
	<path fill="#FFFFFF" stroke="#626366" stroke-width="0.371" d="M621.153,220.8762c-4.6923,8.7581-9.6978,17.2029-9.6978,19.3956
		c-8.4449,2.506-26.5939,2.506-26.5939,2.506c-4.8201-28.6844-15.3171-83.6495-17.2157-93.5518
		c2.9406,1.0995,5.7279,2.2503,8.3489,3.4585c20.3354,9.3526,27.3164,23.7236,30.6021,29.6624
		c2.2055,3.9827,11.0851,20.0094,17.5482,31.9c-0.7031,1.8539-1.6622,4.0275-3.0686,6.6485L621.153,220.8762z"/>
	<path fill="#FFFFFF" stroke="#626366" stroke-width="0.371" d="M559.4628,146.4005l18.2194,96.7801h-11.264l-17.433-99.8232
		c3.6439,0.9589,7.0959,1.9818,10.4843,3.0685L559.4628,146.4005z"/>
	<path fill="#FFFFFF" stroke="#626366" stroke-width="0.371" d="M391.3968,130.9939c8.2083,0,74.9553-0.4539,104.119,2.7425
		c14.8439,1.6237,30.1674,4.085,44.3212,7.3389l18.7756,102.9428l-71.3369,1.8731l-57.5605,0.3132
		c-9.0714-13.4504-16.8961-25.6542-34.4123-24.7144c-4.6924-10.3244-6.885-17.2093-6.885-17.2093
		c14.3902-2.8192,21.9016-5.632,25.9675-12.8239c4.0721-7.1983,3.759-13.1435,3.759-17.2094c0-4.0722-0.9398-20.0285-6.2585-25.9739
		c-5.3188-5.9389-14.0833-8.4385-20.3354-8.4385c-9.0905,0-9.9471,7.2111-14.9399,12.9901v-5.6385
		c-0.064-11.8267,6.5206-16.1737,14.7673-16.1737L391.3968,130.9939z"/>
	<path fill="#FFFFFF" stroke="#626366" stroke-width="0.371" d="M376.5655,206.1728h5.549
		c4.6924,14.0705,5.3252,16.5765,5.3252,16.5765c-4.9737,1.2019-8.4449,2.3973-10.8678,3.6055v-20.1372L376.5655,206.1728z"/>
	<path fill="#FFFFFF" stroke="#626366" stroke-width="0.371" d="M136.9645,199.5244c7.0193-9.1992,20.5208-27.8597,73.9708-46.3156
		c52.6765-18.1938,109.668-20.4057,126.1933-20.3802l0.2749,48.6234c0,18.7692,0.3132,50.0618,0.3132,50.0618
		s-0.211,7.6074-5.4594,10.4906c-34.5274,0.716-141.1141,3.5416-164.9974,3.1964c-27.6168-0.4028-32.6351-10.0175-35.5502-16.7044
		c-2.9407-6.7124-1.79-19.7536,5.2421-28.9592L136.9645,199.5244z"/>
	<path fill="#0F00E7" stroke="#FFFFFF" stroke-width="0.1855" d="M806.4156,226.5658l-2.7424-4.3983l-20.8661-0.9142
		c0,0-0.5562-1.2785-1.6428-1.2785h-3.2986c0,0-1.2849,1.464-1.2849,3.1068c0,1.6621,29.8543,3.4521,29.8543,3.4521
		L806.4156,226.5658z"/>
	<path fill="#231F20" d="M681.8843,195.8806c2.3462,1.643,4.5708,0.3452,5.747,0.2301c2.148-0.211,6.2202-0.2301,9.9727,8.2147
		c2.7682,6.2521,4.0084,10.4394,4.3664,13.15c-5.2486,2.7553-9.1736,4.3983-10.2029,4.8074
		c-0.1918-0.3004-0.4155-0.6457-0.652-1.0229c0.6073-1.3936,4.5772-10.6376,4.1361-13.8787
		c-0.4731-3.5224-1.4064-7.7481-5.8685-8.2147c-4.4557-0.4667-3.043,3.0494-2.5764,4.6923c0.454,1.5982,2.474,8.7836,1.6942,13.2714
		c-3.6566-5.7791-9.1096-14.4413-14.3646-22.8797c1.6622,0.0639,5.8814,0.3197,7.7352,1.5982L681.8843,195.8806z"/>
	<ellipse fill="#0F00E7" stroke="#FFFFFF" stroke-width="0.1855" cx="405.4609" cy="289.7903" rx="17.5992" ry="15.2532"/>
	
		<linearGradient id="SVGID_20_" gradientUnits="userSpaceOnUse" x1="-1263.3523" y1="303.4854" x2="-1263.3523" y2="314.7366" gradientTransform="matrix(-1 0 0 -1 -862.85 598)">
		<stop  offset="0.191" style="stop-color:#626366"/>
		<stop  offset="1" style="stop-color:#BBBDBF"/>
	</linearGradient>
	<path fill="url(#SVGID_20_)" stroke="#FFFFFF" stroke-width="0.1855" d="M434.6758,288.1282c0,0-8.2019-2.6211-28.2433-3.5352
		c-20.0605-0.9078-32.3603-1.4703-38.7402-1.2466c-1.7133,0-2.5124,0.684-2.5124,2.8448c0,2.1672-0.1151,5.696-0.1151,6.8339
		c0,1.1443,0.9142,1.4895,2.3973,1.4895s31.8936-3.0813,45.7978-2.8512c13.9042,0.2238,19.5939,0.9077,20.8532,0.9077
		c1.2786,0.0639,3.0686-3.5799,0.5753-4.347L434.6758,288.1282z"/>
	<circle fill="#808184" stroke="#4E4F51" stroke-width="0.1855" cx="376.8853" cy="288.5118" r="3.3626"/>
	
		<linearGradient id="SVGID_21_" gradientUnits="userSpaceOnUse" x1="-1540.8806" y1="360.7198" x2="-1540.8806" y2="390.9576" gradientTransform="matrix(-1 0 0 -1 -862.85 598)">
		<stop  offset="0.191" style="stop-color:#626366"/>
		<stop  offset="1" style="stop-color:#BBBDBF"/>
	</linearGradient>
	<path fill="url(#SVGID_21_)" stroke="#626366" stroke-width="0.371" d="M689.6835,224.1366l-1.7197,2.6658
		c0,0-4.9992-0.7927-6.0988-0.7927s-0.9398,1.253-0.9398,1.253s-1.0931,2.9726-3.1262,4.5389s-5.0055,4.2256-5.9453,5.4786
		c-2.8128-3.2923-4.5325-8.1316-4.9992-14.55c-0.4731-6.412-0.6265-13.3033-0.3133-15.6432
		c2.4995,1.4064,9.0714,6.7252,11.4175,10.1645c2.3462,3.4457,1.873,5.7919,3.759,6.1051c1.79,0.3197,7.9269,0.7671,7.9269,0.7671
		L689.6835,224.1366z"/>
	
		<linearGradient id="SVGID_22_" gradientUnits="userSpaceOnUse" x1="-636.9753" y1="116.5111" x2="-636.9753" y2="190.5393" gradientTransform="matrix(-1 0 0 -1 -862.85 598)">
		<stop  offset="0.191" style="stop-color:#626366"/>
		<stop  offset="1" style="stop-color:#BBBDBF"/>
	</linearGradient>
	<path fill="url(#SVGID_22_)" stroke="#FFFFFF" stroke-width="0.1855" d="M-187.9161,407.4174
		c-3.3689,0.3324-16.7938,1.6684-27.5145,2.8831c-12.3572,1.4129-28.4734,2.9855-43.1704,9.2376
		c-14.7034,6.2521-17.3628,7.5052-17.2094,13.2969c0.147,5.7919,2.8128,17.5226,2.9726,25.5009
		c-0.1534,2.9726-2.0393,6.5781-0.7863,9.0714c1.253,2.4995,6.2585,5.6257,13.4568,6.7252
		c7.1919,1.0995,40.1977,6.4119,59.5935,7.1983c9.3846,0.4666,12.1974,0.1471,14.2367-4.3919
		c2.0393-4.5262,8.4449-20.9556,9.8577-25.1747c1.4-4.2257-0.3132-3.599-0.4667-6.7252c-0.1534-3.1262-3.1325-4.0721-11.5773-6.105
		c-8.4513-2.0393-28.4734-3.1262-42.0837-5.6384c-13.6102-2.4933-21.8953-4.8457-22.0615-8.1252
		c-0.1534-3.2924,15.9564-7.3517,25.0341-8.4449c8.4321-1.0229,31.3373-3.1133,36.7777-3.4137
		c0.9589-1.79,2.3653-4.6028,2.8767-5.9453L-187.9161,407.4174z"/>
	
		<linearGradient id="SVGID_23_" gradientUnits="userSpaceOnUse" x1="-1982.8417" y1="127.1727" x2="-1982.8417" y2="192.1742" gradientTransform="matrix(-1 0 0 -1 -862.85 598)">
		<stop  offset="0.191" style="stop-color:#626366"/>
		<stop  offset="1" style="stop-color:#BBBDBF"/>
	</linearGradient>
	<path fill="url(#SVGID_23_)" stroke="#FFFFFF" stroke-width="0.1855" d="M1086.5468,408.3762
		c5.1654,1.4,17.1837,4.6668,23.634,6.4312c8.3745,2.2758,23.0651,5.063,24.0879,9.1161c1.0229,4.0657-6.0793,2.7937-8.106,2.7937
		s-23.8323,1.2593-26.626,5.8301c-2.7937,4.5644-2.0265,6.0859-4.8137,9.6339c-2.7872,3.5479-2.538,19.2679-1.7709,22.8222
		c0.7671,3.5415,2.7937,5.8239,15.202,5.8239c12.4275,0,29.6687-0.2558,35.9977-2.5315c6.3352-2.2886,7.1024-13.6869,7.8632-18.0021
		c0.7545-4.3088,2.538-16.7299,1.7709-19.7728s-5.0695-5.5746-9.6338-7.3452c-4.5068-1.758-11.7372-6.4888-58.1423-17.3499
		c0.0641,0.6393,0.2559,1.2786,0.5114,2.4933L1086.5468,408.3762z"/>
	
		<linearGradient id="SVGID_24_" gradientUnits="userSpaceOnUse" x1="-1237.1472" y1="312.2827" x2="-1237.1472" y2="336.4465" gradientTransform="matrix(-1 0 0 -1 -862.85 598)">
		<stop  offset="0.191" style="stop-color:#626366"/>
		<stop  offset="1" style="stop-color:#BBBDBF"/>
	</linearGradient>
	<path fill="url(#SVGID_24_)" stroke="#626366" stroke-width="0.371" d="M49.2556,285.635
		c-2.8128,0.6265-4.0658-2.4996-1.2466-3.4393c25.0341-5.632,104.183-15.6432,152.9918-17.8358
		c45.1138-2.0265,140.5003-2.7169,154.6475-2.8001l0.0448,6.5526c-35.9146,0.0064-120.0627,0.3325-154.379,1.8731
		c-34.7127,1.5982-75.3707,3.1325-152.0201,15.6623L49.2556,285.635z M358.2822,268.1188
		c60.955,0.0448,343.8927,3.4457,343.8927,3.4457v-5.3188c0,0-140.7241-4.6795-343.9503-4.6923l0.0639,6.5207L358.2822,268.1188z"/>
	<path fill="#DFE0E1" d="M-158.6372,404.8603c-1.3553-2.6402-2.3653-6.1435-2.8384-10.8294
		c-0.7863-7.6649,0.4667-36.7649,0.4667-36.7649c0.3069-6.2585,5.3251-15.9564,6.5718-18.4623
		c1.253-2.4996,4.0658-5.3123,8.1316-5.9389c4.0658-0.6265,13.1435-1.2466,22.8478-1.2466c5.6768,0,12.5042-0.537,17.2157-0.9845
		c-22.6304,19.6896-40.4663,53.1239-52.3568,74.1562L-158.6372,404.8603z"/>
	<path fill="#FFDE00" d="M-150.1988,389.9012c-3.9827,0.2365-8.3554,0.4475-11.4878,0.422
		c-0.2877-10.676,0.6777-33.0443,0.6777-33.0443c0.0256-0.6264,0.1214-1.3042,0.2365-2.0009
		c4.3535,0.2749,14.4413,0.7415,32.0278,0.6969c-8.1189,11.1234-15.3426,23.1418-21.4797,33.8816L-150.1988,389.9012z"/>
	<path fill="#F6921E" d="M-128.7191,355.9554c-17.5866,0.0385-27.6743-0.422-32.0278-0.6969
		c1.0612-6.1434,5.2037-14.2046,6.3352-16.455c1.253-2.4996,4.0658-5.3123,8.1316-5.9389
		c4.0658-0.6266,13.1435-1.2466,22.8478-1.2466c5.6768,0,12.5042-0.537,17.2157-0.9845
		c-8.1188,7.0321-15.5984,15.8541-22.4386,25.2515L-128.7191,355.9554z"/>
</g>
</svg>
